# xmcd
#
# Track frame offsets:
#	150
#	18194
#	38559
#	56927
#	79897
#	99835
#	118677
#	136188
#	154557
#	176657
#	200824
#	219487
#	234796
#	254611
#
# Disc length: 3507 seconds
#
# Revision: 1
# Processed by: cddbd v1.5.1PL0 Copyright (c) Steve Scherf et al.
# Submitted via: EasyCDDAExtractor 8.2.1.1
#
DISCID=b60db10e
DTITLE=йоййимоу еккг - сто йоййимо
DYEAR=2003
DGENRE=казйа
TTITLE0=ласаз
TTITLE1=де циметаи
TTITLE2=SORRY
TTITLE3=апойакуьг
TTITLE4=еилаи йака
TTITLE5=ацояи лоу
TTITLE6=хекы тоса ма соу пы
TTITLE7=йослохеыяиа
TTITLE8=йаимоуяциа аявг
TTITLE9=жика ле
TTITLE10=ваятаетос
TTITLE11=еяыта лоу
TTITLE12=ауто то йакойаияи
TTITLE13=OUTRO
EXTD=
EXTT0=
EXTT1=
EXTT2=
EXTT3=
EXTT4=
EXTT5=
EXTT6=
EXTT7=
EXTT8=
EXTT9=
EXTT10=
EXTT11=
EXTT12=
EXTT13=
PLAYORDER=
